{
  "accessors": [
    {
      "bufferView": 2,
      "componentType": 5126,
      "count": 1513,
      "max": [
        -0.05737679824233055,
        0.1670369952917099,
        0.03007039986550808
      ],
      "min": [
        -0.631509006023407,
        0.05539989843964577,
        -0.0457846000790596
      ],
      "type": "VEC3"
    },
    {
      "bufferView": 2,
      "byteOffset": 18156,
      "componentType": 5126,
      "count": 1513,
      "max": [
        1.0,
        1.0,
        1.0
      ],
      "min": [
        -1.0,
        -1.0,
        -1.0
      ],
      "type": "VEC3"
    },
    {
      "bufferView": 3,
      "componentType": 5126,
      "count": 1513,
      "max": [
        1.0,
        1.0,
        1.0,
        1.0
      ],
      "min": [
        -1.0,
        -1.0,
        -1.0,
        1.0
      ],
      "type": "VEC4"
    },
    {
      "bufferView": 1,
      "componentType": 5126,
      "count": 1513,
      "max": [
        0.9933609962463379,
        0.9746950268745422
      ],
      "min": [
        0.017962299287319183,
        0.014385100454092026
      ],
      "type": "VEC2"
    },
    {
      "bufferView": 0,
      "componentType": 5125,
      "count": 4332,
      "type": "SCALAR"
    },
    {
      "bufferView": 2,
      "byteOffset": 36312,
      "componentType": 5126,
      "count": 294,
      "max": [
        0.15205200016498566,
        0.11457300186157227,
        0.020317599177360535
      ],
      "min": [
        0.005521569866687059,
        -0.20787900686264038,
        -0.036031901836395264
      ],
      "type": "VEC3"
    },
    {
      "bufferView": 2,
      "byteOffset": 39840,
      "componentType": 5126,
      "count": 294,
      "max": [
        0.9991741180419922,
        1.0,
        1.0
      ],
      "min": [
        -1.0,
        -0.9766868948936462,
        -1.0
      ],
      "type": "VEC3"
    },
    {
      "bufferView": 3,
      "byteOffset": 24208,
      "componentType": 5126,
      "count": 294,
      "max": [
        1.0,
        1.0,
        1.0,
        1.0
      ],
      "min": [
        -1.0,
        -0.4413380026817322,
        -0.9473029971122742,
        1.0
      ],
      "type": "VEC4"
    },
    {
      "bufferView": 1,
      "byteOffset": 12104,
      "componentType": 5126,
      "count": 294,
      "max": [
        0.9776849746704102,
        0.965628981590271
      ],
      "min": [
        0.03012700006365776,
        0.015037599951028824
      ],
      "type": "VEC2"
    },
    {
      "bufferView": 0,
      "byteOffset": 17328,
      "componentType": 5125,
      "count": 984,
      "type": "SCALAR"
    },
    {
      "bufferView": 2,
      "byteOffset": 43368,
      "componentType": 5126,
      "count": 8682,
      "max": [
        0.5094019770622253,
        0.20788000524044037,
        0.08382020145654678
      ],
      "min": [
        -0.8130350112915039,
        -0.17770400643348694,
        -0.08382020145654678
      ],
      "type": "VEC3"
    },
    {
      "bufferView": 2,
      "byteOffset": 147552,
      "componentType": 5126,
      "count": 8682,
      "max": [
        1.0,
        1.0,
        1.0
      ],
      "min": [
        -1.0,
        -1.0,
        -1.0
      ],
      "type": "VEC3"
    },
    {
      "bufferView": 3,
      "byteOffset": 28912,
      "componentType": 5126,
      "count": 8682,
      "max": [
        1.0,
        1.0,
        1.0,
        1.0
      ],
      "min": [
        -1.0,
        -1.0,
        -1.0,
        -1.0
      ],
      "type": "VEC4"
    },
    {
      "bufferView": 1,
      "byteOffset": 14456,
      "componentType": 5126,
      "count": 8682,
      "max": [
        0.9899790287017822,
        0.9951140284538269
      ],
      "min": [
        0.007574259769171476,
        0.005168910138309002
      ],
      "type": "VEC2"
    },
    {
      "bufferView": 0,
      "byteOffset": 21264,
      "componentType": 5125,
      "count": 27762,
      "type": "SCALAR"
    },
    {
      "bufferView": 2,
      "byteOffset": 251736,
      "componentType": 5126,
      "count": 492,
      "max": [
        1.0,
        0.14855700731277466,
        0.03298860043287277
      ],
      "min": [
        0.47964099049568176,
        -0.13736499845981598,
        -0.0487028993666172
      ],
      "type": "VEC3"
    },
    {
      "bufferView": 2,
      "byteOffset": 257640,
      "componentType": 5126,
      "count": 492,
      "max": [
        0.9997352361679077,
        0.9675146341323853,
        1.0
      ],
      "min": [
        -1.0,
        -0.9945386648178101,
        -1.0
      ],
      "type": "VEC3"
    },
    {
      "bufferView": 3,
      "byteOffset": 167824,
      "componentType": 5126,
      "count": 492,
      "max": [
        0.9945390224456787,
        1.0,
        1.0,
        1.0
      ],
      "min": [
        -1.0,
        -0.9837989807128906,
        -1.0,
        -1.0
      ],
      "type": "VEC4"
    },
    {
      "bufferView": 1,
      "byteOffset": 83912,
      "componentType": 5126,
      "count": 492,
      "max": [
        0.9835889935493469,
        0.9833260178565979
      ],
      "min": [
        0.021960200741887093,
        0.022527800872921944
      ],
      "type": "VEC2"
    },
    {
      "bufferView": 0,
      "byteOffset": 132312,
      "componentType": 5125,
      "count": 1824,
      "type": "SCALAR"
    },
    {
      "bufferView": 2,
      "byteOffset": 263544,
      "componentType": 5126,
      "count": 2144,
      "max": [
        -0.7998849749565125,
        0.11807399988174438,
        0.015242000110447407
      ],
      "min": [
        -1.093790054321289,
        0.07187759876251221,
        -0.030954699963331223
      ],
      "type": "VEC3"
    },
    {
      "bufferView": 2,
      "byteOffset": 289272,
      "componentType": 5126,
      "count": 2144,
      "max": [
        1.0,
        1.0,
        1.0
      ],
      "min": [
        -1.0,
        -1.0,
        -1.0
      ],
      "type": "VEC3"
    },
    {
      "bufferView": 3,
      "byteOffset": 175696,
      "componentType": 5126,
      "count": 2144,
      "max": [
        1.0,
        0.999987006187439,
        1.0,
        1.0
      ],
      "min": [
        -1.0,
        -0.999987006187439,
        -0.9999989867210388,
        1.0
      ],
      "type": "VEC4"
    },
    {
      "bufferView": 1,
      "byteOffset": 87848,
      "componentType": 5126,
      "count": 2144,
      "max": [
        0.9641519784927368,
        0.9803490042686462
      ],
      "min": [
        0.08686040341854095,
        0.027239300310611725
      ],
      "type": "VEC2"
    },
    {
      "bufferView": 0,
      "byteOffset": 139608,
      "componentType": 5125,
      "count": 7680,
      "type": "SCALAR"
    }
  ],
  "asset": {
    "extras": {
      "author": "Yksnawel (https://sketchfab.com/Yoba228)",
      "license": "CC-BY-NC-SA-4.0 (http://creativecommons.org/licenses/by-nc-sa/4.0/)",
      "source": "https://sketchfab.com/3d-models/stg58-54fdb3f5ced44231b85a748266cae1d9",
      "title": "StG.58"
    },
    "generator": "Sketchfab-12.65.0",
    "version": "2.0"
  },
  "bufferViews": [
    {
      "buffer": 0,
      "byteLength": 170328,
      "name": "floatBufferViews",
      "target": 34963
    },
    {
      "buffer": 0,
      "byteLength": 105000,
      "byteOffset": 170328,
      "byteStride": 8,
      "name": "floatBufferViews",
      "target": 34962
    },
    {
      "buffer": 0,
      "byteLength": 315000,
      "byteOffset": 275328,
      "byteStride": 12,
      "name": "floatBufferViews",
      "target": 34962
    },
    {
      "buffer": 0,
      "byteLength": 210000,
      "byteOffset": 590328,
      "byteStride": 16,
      "name": "floatBufferViews",
      "target": 34962
    }
  ],
  "buffers": [
    {
      "byteLength": 800328,
      "uri": "scene.bin"
    }
  ],
  "images": [
    {
      "uri": "textures/material_baseColor.jpeg"
    },
    {
      "uri": "textures/material_metallicRoughness.png"
    },
    {
      "uri": "textures/material_normal.png"
    },
    {
      "uri": "textures/stock_baseColor.jpeg"
    },
    {
      "uri": "textures/stock_metallicRoughness.png"
    },
    {
      "uri": "textures/stock_normal.jpeg"
    },
    {
      "uri": "textures/gunbody_baseColor.jpeg"
    },
    {
      "uri": "textures/gunbody_metallicRoughness.png"
    },
    {
      "uri": "textures/gunbody_normal.jpeg"
    },
    {
      "uri": "textures/material_3_baseColor.jpeg"
    },
    {
      "uri": "textures/material_3_metallicRoughness.png"
    },
    {
      "uri": "textures/material_3_normal.png"
    },
    {
      "uri": "textures/foreend_baseColor.jpeg"
    },
    {
      "uri": "textures/foreend_metallicRoughness.png"
    },
    {
      "uri": "textures/foreend_normal.png"
    }
  ],
  "materials": [
    {
      "doubleSided": true,
      "name": "material",
      "normalTexture": {
        "index": 2
      },
      "occlusionTexture": {
        "index": 1
      },
      "pbrMetallicRoughness": {
        "baseColorTexture": {
          "index": 0
        },
        "metallicRoughnessTexture": {
          "index": 1
        }
      }
    },
    {
      "doubleSided": true,
      "name": "stock",
      "normalTexture": {
        "index": 5
      },
      "occlusionTexture": {
        "index": 4
      },
      "pbrMetallicRoughness": {
        "baseColorTexture": {
          "index": 3
        },
        "metallicRoughnessTexture": {
          "index": 4
        }
      }
    },
    {
      "doubleSided": true,
      "name": "gunbody",
      "normalTexture": {
        "index": 8
      },
      "occlusionTexture": {
        "index": 7
      },
      "pbrMetallicRoughness": {
        "baseColorTexture": {
          "index": 6
        },
        "metallicRoughnessTexture": {
          "index": 7
        }
      }
    },
    {
      "doubleSided": true,
      "name": "material_3",
      "normalTexture": {
        "index": 11
      },
      "occlusionTexture": {
        "index": 10
      },
      "pbrMetallicRoughness": {
        "baseColorTexture": {
          "index": 9
        },
        "metallicRoughnessTexture": {
          "index": 10
        }
      }
    },
    {
      "doubleSided": true,
      "name": "foreend",
      "normalTexture": {
        "index": 14
      },
      "occlusionTexture": {
        "index": 13
      },
      "pbrMetallicRoughness": {
        "baseColorTexture": {
          "index": 12
        },
        "metallicRoughnessTexture": {
          "index": 13
        }
      }
    }
  ],
  "meshes": [
    {
      "name": "defaultMaterial",
      "primitives": [
        {
          "attributes": {
            "NORMAL": 1,
            "POSITION": 0,
            "TANGENT": 2,
            "TEXCOORD_0": 3
          },
          "indices": 4,
          "material": 4,
          "mode": 4
        }
      ]
    },
    {
      "name": "defaultMaterial",
      "primitives": [
        {
          "attributes": {
            "NORMAL": 6,
            "POSITION": 5,
            "TANGENT": 7,
            "TEXCOORD_0": 8
          },
          "indices": 9,
          "material": 3,
          "mode": 4
        }
      ]
    },
    {
      "name": "defaultMaterial",
      "primitives": [
        {
          "attributes": {
            "NORMAL": 11,
            "POSITION": 10,
            "TANGENT": 12,
            "TEXCOORD_0": 13
          },
          "indices": 14,
          "material": 2,
          "mode": 4
        }
      ]
    },
    {
      "name": "defaultMaterial",
      "primitives": [
        {
          "attributes": {
            "NORMAL": 16,
            "POSITION": 15,
            "TANGENT": 17,
            "TEXCOORD_0": 18
          },
          "indices": 19,
          "material": 1,
          "mode": 4
        }
      ]
    },
    {
      "name": "defaultMaterial",
      "primitives": [
        {
          "attributes": {
            "NORMAL": 21,
            "POSITION": 20,
            "TANGENT": 22,
            "TEXCOORD_0": 23
          },
          "indices": 24,
          "material": 0,
          "mode": 4
        }
      ]
    }
  ],
  "nodes": [
    {
      "children": [
        1
      ],
      "matrix": [
        0.9692037105560303,
        -0.2444949597120285,
        -0.02943484298884874,
        0.0,
        -0.10448352247476578,
        -0.3000306487083433,
        -0.9481902718544007,
        0.0,
        0.22299638390541077,
        0.9220649600028993,
        -0.31633651256561257,
        0.0,
        -0.001444122870452702,
        -0.011465557850897312,
        -0.0013804293703287866,
        1.0
      ],
      "name": "Sketchfab_model"
    },
    {
      "children": [
        2,
        4,
        6,
        8,
        10
      ],
      "matrix": [
        1.0,
        0.0,
        0.0,
        0.0,
        0.0,
        -4.371139006309477e-08,
        0.999999999999999,
        0.0,
        0.0,
        -0.999999999999999,
        -4.371139006309477e-08,
        0.0,
        0.0,
        0.0,
        0.0,
        1.0
      ],
      "name": "Collada visual scene group"
    },
    {
      "children": [
        3
      ],
      "name": "Cube.003"
    },
    {
      "mesh": 0,
      "name": "defaultMaterial"
    },
    {
      "children": [
        5
      ],
      "name": "Cube.001"
    },
    {
      "mesh": 1,
      "name": "defaultMaterial"
    },
    {
      "children": [
        7
      ],
      "name": "Cube.000"
    },
    {
      "mesh": 2,
      "name": "defaultMaterial"
    },
    {
      "children": [
        9
      ],
      "name": "Cube.005"
    },
    {
      "mesh": 3,
      "name": "defaultMaterial"
    },
    {
      "children": [
        11
      ],
      "name": "Cylinder"
    },
    {
      "mesh": 4,
      "name": "defaultMaterial"
    }
  ],
  "samplers": [
    {
      "magFilter": 9729,
      "minFilter": 9987,
      "wrapS": 10497,
      "wrapT": 10497
    }
  ],
  "scene": 0,
  "scenes": [
    {
      "name": "Sketchfab_Scene",
      "nodes": [
        0
      ]
    }
  ],
  "textures": [
    {
      "sampler": 0,
      "source": 0
    },
    {
      "sampler": 0,
      "source": 1
    },
    {
      "sampler": 0,
      "source": 2
    },
    {
      "sampler": 0,
      "source": 3
    },
    {
      "sampler": 0,
      "source": 4
    },
    {
      "sampler": 0,
      "source": 5
    },
    {
      "sampler": 0,
      "source": 6
    },
    {
      "sampler": 0,
      "source": 7
    },
    {
      "sampler": 0,
      "source": 8
    },
    {
      "sampler": 0,
      "source": 9
    },
    {
      "sampler": 0,
      "source": 10
    },
    {
      "sampler": 0,
      "source": 11
    },
    {
      "sampler": 0,
      "source": 12
    },
    {
      "sampler": 0,
      "source": 13
    },
    {
      "sampler": 0,
      "source": 14
    }
  ]
}
